HIERARCHY
ROOT Hips
{
 OFFSET 0.000000 0.000000 0.000000
 CHANNELS 6 Xposition Yposition Zposition Yrotation Xrotation Zrotation
 JOINT Chest
 {
  OFFSET 0.000000 9.585900 0.002600
  CHANNELS 3 Yrotation Xrotation Zrotation
  JOINT Chest2
  {
   OFFSET 0.000000 9.601200 -0.005300
   CHANNELS 3 Yrotation Xrotation Zrotation
   JOINT Chest3
   {
    OFFSET 0.000000 9.561800 0.000000
    CHANNELS 3 Yrotation Xrotation Zrotation
    JOINT Chest4
    {
     OFFSET 0.000000 9.552100 0.000000
     CHANNELS 3 Yrotation Xrotation Zrotation
     JOINT Neck
     {
      OFFSET 0.000000 14.453000 0.000000
      CHANNELS 3 Yrotation Xrotation Zrotation
      JOINT Head
      {
       OFFSET 0.000000 8.936500 -0.011300
       CHANNELS 3 Yrotation Xrotation Zrotation
       End Site
       {
        OFFSET 0.000000 17.073600 -0.006000
       }
      }
     }
     JOINT RightCollar
     {
      OFFSET -2.921100 9.558500 0.000000
      CHANNELS 3 Yrotation Xrotation Zrotation
      JOINT RightShoulder
      {
       OFFSET -13.519700 0.000000 0.000000
       CHANNELS 3 Yrotation Xrotation Zrotation
       JOINT RightElbow
       {
        OFFSET 0.000000 -29.696600 0.000000
        CHANNELS 3 Yrotation Xrotation Zrotation
        JOINT RightWrist
        {
         OFFSET 0.000000 -24.004700 0.000000
         CHANNELS 3 Yrotation Xrotation Zrotation
         End Site
         {
          OFFSET 0.000000 -17.728500 0.000000
         }
        }
       }
      }
     }
     JOINT LeftCollar
     {
      OFFSET 2.921100 9.558500 0.000000
      CHANNELS 3 Yrotation Xrotation Zrotation
      JOINT LeftShoulder
      {
       OFFSET 13.519700 0.000000 0.000000
       CHANNELS 3 Yrotation Xrotation Zrotation
       JOINT LeftElbow
       {
        OFFSET 0.000000 -29.696600 0.000000
        CHANNELS 3 Yrotation Xrotation Zrotation
        JOINT LeftWrist
        {
         OFFSET 0.000000 -24.004700 0.000000
         CHANNELS 3 Yrotation Xrotation Zrotation
         End Site
         {
          OFFSET 0.000000 -17.728500 0.000000
         }
        }
       }
      }
     }
    }
   }
  }
 }
 JOINT RightHip
 {
  OFFSET -7.771700 -0.012900 -0.001300
  CHANNELS 3 Yrotation Xrotation Zrotation
  JOINT RightKnee
  {
   OFFSET 0.000000 -40.869800 0.001200
   CHANNELS 3 Yrotation Xrotation Zrotation
   JOINT RightAnkle
   {
    OFFSET 0.000000 -39.717900 0.002100
    CHANNELS 3 Yrotation Xrotation Zrotation
    JOINT RightToe
    {
     OFFSET 0.000000 -4.965400 11.033500
     CHANNELS 3 Yrotation Xrotation Zrotation
     End Site
     {
      OFFSET 0.000000 -1.423100 5.872300
     }
    }
   }
  }
 }
 JOINT LeftHip
 {
  OFFSET 7.771700 -0.012900 -0.001300
  CHANNELS 3 Yrotation Xrotation Zrotation
  JOINT LeftKnee
  {
   OFFSET 0.000000 -40.869800 0.001200
   CHANNELS 3 Yrotation Xrotation Zrotation
   JOINT LeftAnkle
   {
    OFFSET 0.000000 -39.717900 0.002100
    CHANNELS 3 Yrotation Xrotation Zrotation
    JOINT LeftToe
    {
     OFFSET 0.000000 -4.965400 11.033500
     CHANNELS 3 Yrotation Xrotation Zrotation
     End Site
     {
      OFFSET 0.000000 -1.423100 5.872300
     }
    }
   }
  }
 }
}
MOTION
Frames: 11
Frame Time: 0.008333
3.265401 52.215432 37.148860 171.339823 -39.235455 -1.400178 3.681970 23.700938 2.444247 0.493606 3.525018 0.470567 0.792225 5.716095 0.772582 3.157665 19.641760 3.096621 1.549259 15.952766 -1.349743 3.364852 -6.111180 -3.065208 -5.982248 -1.388366 -3.462409 -3.768369 -2.067413 2.991700 -175.816916 -68.362257 -169.743634 0.910806 -10.087490 -7.517703 -5.181615 0.900597 0.813271 9.872013 -6.021394 2.551068 -179.250344 -64.275069 171.184472 -5.263485 -22.206688 19.572425 -3.650851 -42.179066 2.545921 177.465698 87.393905 -178.669101 -2.008760 -11.117025 -2.216694 0.052589 -0.219467 0.015390 -0.875913 -38.540329 4.603411 73.586266 81.659018 63.907657 -5.260052 -12.124398 7.936641 0.501784 1.719334 0.246341
3.266306 52.216369 37.144682 171.329889 -39.215331 -1.422437 3.687596 23.710542 2.467770 0.480804 3.561132 0.472026 0.807153 5.686854 0.773127 3.151797 19.651090 3.100221 1.540778 15.929761 -1.337533 3.311781 -6.169290 -2.989373 -6.010919 -1.374207 -3.473338 -3.783386 -1.978303 2.999202 -175.590707 -68.556625 -169.936242 0.924086 -10.012877 -7.391617 -5.204063 0.949925 0.840725 9.896748 -6.063166 2.510095 -179.280940 -64.453669 171.162989 -5.306099 -21.901868 19.308479 -3.681587 -42.189426 2.584703 177.255902 87.399714 -178.875558 -2.004956 -11.121352 -2.223077 0.053027 -0.218921 0.012279 -0.856376 -38.559058 4.635076 73.664363 81.659136 63.989632 -5.271737 -12.136928 7.952255 0.486987 1.716594 0.248891
3.264215 52.218283 37.137344 171.335626 -39.204756 -1.434443 3.678659 23.716170 2.472742 0.480203 3.562676 0.472283 0.778001 5.748348 0.776161 3.142957 19.656394 3.100319 1.522448 15.897777 -1.305119 3.314407 -6.232735 -2.983772 -5.988908 -1.429717 -3.491120 -3.814535 -1.867598 2.998236 -175.352484 -68.746663 -170.143565 0.932411 -9.942701 -7.274293 -5.178195 0.905281 0.839994 9.897701 -6.055726 2.499773 -179.351788 -64.627467 171.176574 -5.341943 -21.555606 18.989546 -3.707260 -42.189765 2.591905 176.778233 87.397179 -179.351133 -2.008429 -11.133406 -2.228618 0.054129 -0.218506 0.008479 -0.863242 -38.567774 4.645664 73.735444 81.656220 64.054926 -5.279107 -12.134469 7.957868 0.490791 1.702010 0.246072
3.261434 52.217363 37.131984 171.343826 -39.168460 -1.445474 3.664980 23.696655 2.473366 0.479452 3.563904 0.472405 0.766947 5.764021 0.775475 3.154615 19.634755 3.097375 1.498713 15.910642 -1.278784 3.298625 -6.255934 -2.951891 -6.033476 -1.382604 -3.488697 -3.817760 -1.801277 2.992234 -175.102234 -68.928050 -170.360106 0.938813 -9.880909 -7.170963 -5.187981 0.924053 0.855378 9.889605 -6.014733 2.504110 -179.469038 -64.767216 171.249581 -5.366011 -21.155619 18.594902 -3.732307 -42.221092 2.604892 176.594678 87.392715 -179.538057 -2.010496 -11.142298 -2.231865 0.059188 -0.219320 0.013816 -0.856561 -38.603326 4.645890 73.744951 81.659579 64.073923 -5.298465 -12.137739 7.958006 0.505550 1.699860 0.244858
3.261555 52.216222 37.125989 171.328218 -39.132339 -1.457193 3.668064 23.688592 2.484921 0.478018 3.566019 0.472673 0.765639 5.760208 0.776331 3.144754 19.647166 3.096642 1.492855 15.894841 -1.263204 3.281013 -6.267190 -2.919554 -6.052613 -1.370172 -3.489771 -3.827114 -1.741855 2.981601 -174.853953 -69.103184 -170.572878 0.943200 -9.831235 -7.082250 -5.177451 0.906562 0.863333 9.879088 -5.983296 2.512742 -179.586870 -64.912756 171.333212 -5.383185 -20.685443 18.114198 -3.746099 -42.252936 2.638507 176.479752 87.390830 -179.652342 -2.008827 -11.146272 -2.233509 0.059441 -0.220520 0.014080 -0.850478 -38.639074 4.672425 73.828976 81.666803 64.155551 -5.297372 -12.151307 7.971399 0.494240 1.697864 0.238359
3.264263 52.219386 37.113523 171.295578 -39.141374 -1.466118 3.693003 23.721133 2.510608 0.476427 3.566160 0.472655 0.771271 5.746810 0.776635 3.128171 19.662016 3.096852 1.490604 15.884411 -1.253074 3.252273 -6.267354 -2.880389 -6.061121 -1.361976 -3.490781 -3.822971 -1.725864 2.973646 -174.659083 -69.320618 -170.763158 0.947136 -9.797956 -7.006342 -5.171252 0.896108 0.871230 9.881550 -5.963231 2.517042 -179.666281 -65.056247 171.378996 -5.400939 -20.120740 17.537214 -3.756976 -42.232569 2.676243 175.997936 87.391127 179.868846 -2.006164 -11.154217 -2.246776 0.048538 -0.223216 0.015189 -0.836204 -38.627418 4.712949 74.039408 81.670056 64.350449 -5.283395 -12.165570 8.001741 0.458745 1.678521 0.220308
3.264639 52.219793 37.102358 171.290503 -39.130685 -1.477755 3.686571 23.733817 2.518877 0.474206 3.565877 0.472616 0.778630 5.734853 0.776134 3.079590 19.684294 3.100074 1.531469 15.859511 -1.272794 3.204439 -6.255437 -2.824901 -6.031432 -1.365708 -3.508144 -3.827792 -1.707694 2.968768 -174.489020 -69.522142 -170.925935 0.950587 -9.780290 -6.933845 -5.124253 0.870967 0.856955 9.868513 -5.949490 2.529679 -179.654926 -65.189827 171.358837 -5.423372 -19.441858 16.853310 -3.769632 -42.234279 2.695788 175.450518 87.383413 179.323927 -2.017108 -11.170407 -2.253465 0.042544 -0.220895 0.017101 -0.829448 -38.636627 4.730243 74.138437 81.679992 64.447121 -5.279774 -12.174469 8.013060 0.449725 1.670091 0.215848
3.266158 52.219336 37.090708 171.289443 -39.120403 -1.495762 3.660409 23.757621 2.518835 0.490140 3.551507 0.475631 0.774783 5.733427 0.776419 3.055814 19.681247 3.101167 1.532297 15.863163 -1.265422 3.188542 -6.247683 -2.799720 -6.014426 -1.355626 -3.521971 -3.855190 -1.654005 2.966998 -174.314340 -69.670551 -171.071735 0.950798 -9.770723 -6.846283 -5.091241 0.864886 0.848049 9.856886 -5.938966 2.537072 -179.519847 -65.303358 171.238907 -5.456642 -18.650366 16.060662 -3.780964 -42.236354 2.719396 174.996984 87.374157 178.876245 -2.028610 -11.185264 -2.257222 0.043498 -0.220249 0.019203 -0.828168 -38.647833 4.756225 74.252063 81.697377 64.557456 -5.279334 -12.182171 8.030700 0.442627 1.657929 0.210782
3.267714 52.218702 37.077468 171.286803 -39.119332 -1.508814 3.650201 23.768174 2.524143 0.486802 3.552567 0.476438 0.770870 5.732301 0.776911 3.042239 19.675384 3.100090 1.499969 15.883400 -1.232206 3.205175 -6.238088 -2.806287 -6.006216 -1.340073 -3.532485 -3.875293 -1.557706 2.967285 -174.139083 -69.758435 -171.222921 0.946625 -9.761948 -6.725831 -5.106785 0.881494 0.869835 9.880094 -5.946118 2.526174 -179.267585 -65.405260 171.041214 -5.512459 -17.765534 15.162333 -3.788781 -42.230516 2.739799 174.587392 87.362910 178.469004 -2.039202 -11.201572 -2.258003 0.053860 -0.220624 0.020770 -0.819787 -38.649473 4.777803 74.366813 81.718339 64.667382 -5.273318 -12.189310 8.046071 0.435092 1.642742 0.210393
3.269386 52.216408 37.064579 171.281174 -39.114685 -1.518081 3.650565 23.768314 2.532318 0.476200 3.557770 0.475301 0.766851 5.729560 0.777321 3.025596 19.672429 3.097588 1.497626 15.895007 -1.219659 3.195659 -6.209658 -2.786637 -5.996615 -1.328243 -3.540608 -3.850564 -1.529779 2.966742 -173.952164 -69.898062 -171.433005 0.938022 -9.746486 -6.563925 -5.099664 0.883144 0.879466 9.900467 -5.949813 2.525737 -178.897540 -65.495373 170.725842 -5.604704 -16.816431 14.171480 -3.792587 -42.231320 2.759847 173.895601 87.348710 177.780030 -2.070288 -11.219327 -2.257330 0.057943 -0.220061 0.021052 -0.799849 -38.654792 4.794683 74.473462 81.740769 64.774124 -5.274568 -12.203352 8.063015 0.424694 1.637225 0.208746
3.270612 52.212813 37.051808 171.273487 -39.109378 -1.520429 3.649547 23.767342 2.533948 0.464190 3.560579 0.473523 0.762412 5.727049 0.777246 3.008727 19.676104 3.095480 1.497231 15.912192 -1.211520 3.191461 -6.178091 -2.770812 -5.976988 -1.327758 -3.549139 -3.833432 -1.504342 2.968575 -173.714811 -70.027631 -171.688025 0.922027 -9.720833 -6.359071 -5.075199 0.877584 0.878960 9.921301 -5.958827 2.535309 -178.431498 -65.574832 170.310005 -5.737704 -15.846878 13.126240 -3.777345 -42.237396 2.773219 173.852630 87.329567 177.739823 -2.084970 -11.235482 -2.248242 0.062846 -0.221074 0.022497 -0.791802 -38.659580 4.806914 74.606771 81.754969 64.896310 -5.260253 -12.224659 8.082910 0.409300 1.637360 0.198692
